<svg xmlns="http://www.w3.org/2000/svg" width="150" height="42" viewBox="0 0 150 42">
  <g id="グループ_171" data-name="グループ 171" transform="translate(1135 -2262)">
    <rect id="長方形_4239" data-name="長方形 4239" width="150" height="42" transform="translate(-1135 2262)" fill="#fff"/>
    <g id="グループ_170" data-name="グループ 170" transform="translate(-1295.756 1987.366)">
      <g id="グループ_6" data-name="グループ 6" transform="translate(164.756 282.242)">
        <g id="グループ_4" data-name="グループ 4">
          <g id="グループ_2" data-name="グループ 2">
            <g id="グループ_1" data-name="グループ 1">
              <path id="パス_1" data-name="パス 1" d="M178.187,286.911c5.072,0,9.542,1.085,12.189,2.733a13.7,13.7,0,0,0-24.307-.043C168.723,287.975,173.159,286.911,178.187,286.911Z" transform="translate(-164.517 -282.242)" fill="#36a1c9"/>
              <path id="パス_2" data-name="パス 2" d="M178.427,297.311c-6.2,0-11.492-1.618-13.66-3.906-.009.171-.011.337-.011.511a13.694,13.694,0,1,0,27.389,0c0-.193-.006-.375-.012-.565C190,295.666,184.667,297.311,178.427,297.311Z" transform="translate(-164.756 -280.218)" fill="#36a1c9"/>
            </g>
            <path id="パス_3" data-name="パス 3" d="M177.813,295.191c5.362,0,9.712-1.449,9.712-3.238s-4.349-3.236-9.712-3.236-9.708,1.449-9.708,3.236S172.452,295.191,177.813,295.191Z" transform="translate(-164.146 -281.062)" fill="#36a1c9"/>
          </g>
          <g id="グループ_3" data-name="グループ 3" transform="translate(30.533 5.267)">
            <path id="パス_4" data-name="パス 4" d="M216.615,300.7h-3.072v-14h-3.275v14.86a2.131,2.131,0,0,0,2.124,2.127h5.372a2.131,2.131,0,0,0,2.124-2.127V286.7h-3.273Z" transform="translate(-186.998 -286.697)" fill="#1a1311"/>
            <path id="パス_5" data-name="パス 5" d="M197.335,294.22l-3.478-2.383v-2.162H198.5l-.6-2.978h-5.2a2.125,2.125,0,0,0-2.122,2.127V292.4a2.207,2.207,0,0,0,.617,1.5,14.7,14.7,0,0,0,1.5,1.218l3.141,2.087v3.5H190.91l.593,2.984H197a2.135,2.135,0,0,0,2.127-2.127v-4.988a1.927,1.927,0,0,0-.6-1.428A5.639,5.639,0,0,0,197.335,294.22Z" transform="translate(-190.584 -286.697)" fill="#1a1311"/>
            <path id="パス_6" data-name="パス 6" d="M230.144,288.824v12.733a2.133,2.133,0,0,0,2.127,2.127h5.695V300.7h-4.543V289.675h4.543l-.593-2.978h-5.1A2.129,2.129,0,0,0,230.144,288.824Z" transform="translate(-183.377 -286.697)" fill="#1a1311"/>
            <path id="パス_7" data-name="パス 7" d="M208.85,287.325a2.1,2.1,0,0,0-1.5-.621h-5.375a2.123,2.123,0,0,0-2.127,2.126v12.726a2.133,2.133,0,0,0,2.127,2.127h5.375a2.131,2.131,0,0,0,2.122-2.127V288.83A2.111,2.111,0,0,0,208.85,287.325ZM206.194,300.7h-3.067V289.681h3.067Z" transform="translate(-188.896 -286.696)" fill="#1a1311"/>
            <path id="パス_8" data-name="パス 8" d="M256.821,303.667V286.7h-3.278v8.876L249.57,286.7H246.89v16.986l3.278-.016v-8.081l3.674,8.094Z" transform="translate(-180.327 -286.697)" fill="#1a1311"/>
            <path id="パス_9" data-name="パス 9" d="M276.049,286.7h-3.377l-2,5.475-1.705-5.475h-3.674l3.245,7.926-3.509,9.043,3.777.016,1.992-6.573,1.742,6.573,3.678-.016-3.16-9.239Z" transform="translate(-177.023 -286.697)" fill="#1a1311"/>
            <path id="パス_10" data-name="パス 10" d="M220.734,286.706v16.972h3.273v-14h2.144v3.649l-.838,1.07a1.718,1.718,0,0,0-.345,1.7l2.535,7.593h3.625l-3.091-7.734c.286-.325.549-.683.77-.929a2.206,2.206,0,0,0,.623-1.5v-4.694A2.129,2.129,0,0,0,227.3,286.7Z" transform="translate(-185.092 -286.697)" fill="#1a1311"/>
            <path id="パス_11" data-name="パス 11" d="M246.17,303.683V300.7h-4.537v-4.468h3.942v-2.98h-3.942v-3.577h4.537l-.595-2.978h-7.228v16.986h.012v.012Z" transform="translate(-181.883 -286.697)" fill="#1a1311"/>
            <path id="パス_12" data-name="パス 12" d="M265.366,303.683V300.7h-4.535v-4.468h3.935v-2.98h-3.935v-3.577h4.535l-.6-2.978h-7.223v16.986h.007v.012Z" transform="translate(-178.386 -286.697)" fill="#1a1311"/>
            <path id="パス_13" data-name="パス 13" d="M275.426,286.7l-.6,2.978h2.275v14.008l3.278-.016V289.675h2.271V286.7Z" transform="translate(-175.237 -286.697)" fill="#1a1311"/>
          </g>
        </g>
        <g id="グループ_5" data-name="グループ 5" transform="translate(136.826 17.283)">
          <path id="パス_14" data-name="パス 14" d="M283.053,298.175h1.034c.2,0,.547.04.547.514,0,.45-.319.526-.623.526h-.959Zm0,1.395h1c.5,0,.548.294.548.547a3.634,3.634,0,0,0,.071.77h.508v-.069c-.129-.072-.147-.135-.154-.307l-.024-.557c-.018-.426-.194-.5-.37-.576a.752.752,0,0,0,.431-.734c0-.645-.506-.824-1.012-.824h-1.416v3.067h.415Z" transform="translate(-281.134 -296.687)" fill="#1a1311"/>
          <path id="パス_15" data-name="パス 15" d="M281.366,299.534a2.671,2.671,0,1,0,2.671-2.672A2.671,2.671,0,0,0,281.366,299.534Zm.361,0a2.309,2.309,0,1,1,2.31,2.309A2.313,2.313,0,0,1,281.727,299.534Z" transform="translate(-281.366 -296.862)" fill="#1a1311"/>
        </g>
      </g>
    </g>
  </g>
</svg>
